#!OML:ASF H:\Not Pregnant\Project 1\Capture day 1\Session 1\non-pregnant.ASF
:FULLY-SPECIFIED
:DEGREES
3865
root 5.379 6.63173 17.0401 61.5323 -12.3315 -6.47386
lowerback 27.3153 0.262186 8.4057
upperback 10.3954 1.65951 -7.68627
thorax -2.87447 1.13163 -13.3093
lowerneck 23.6418 -9.61132 -36.6934
upperneck -7.19793 -20.4028 44.2363
head 4.23158 -13.6141 25.7264
rclavicle 2.66371e-014 -2.46245e-014
rhumerus 60.1345 4.63993 -78.8032
rradius 91.1789
rwrist 18.6949
rhand -10.1335 -6.79578
rfingers 7.12502
rthumb 15.855 323.833
lclavicle 2.66371e-014 -2.46245e-014
lhumerus 60.8757 -20.2824 69.9892
lradius 74.6161
lwrist -27.3661
lhand -44.7471 0.59135
lfingers 7.12502
lthumb -17.5402 29.8201
rfemur -0.850271 10.9276 12.9908
rtibia 40.6324
rfoot -12.365 8.38343
rtoes -35.2872
lfemur -181.205 0.967762 -46.0237
ltibia 130.929
lfoot -6.73852 -10.8999
ltoes 18.5033
3866
root 5.39565 6.64546 17.0231 61.3988 -12.575 -6.55312
lowerback 27.3315 0.47497 8.17661
upperback 10.2065 1.87467 -7.60947
thorax -3.03432 1.20955 -13.1549
lowerneck 23.6974 -9.597 -36.6485
upperneck -8.04741 -20.2732 44.4336
head 3.95677 -13.5741 25.902
rclavicle -7.95139e-015 2.56681e-014
rhumerus 59.6487 4.53383 -78.833
rradius 90.7166
rwrist 18.5723
rhand -10.2486 -6.83913
rfingers 7.12502
rthumb 15.7442 323.781
lclavicle -7.95139e-015 2.56681e-014
lhumerus 60.9495 -20.4534 69.1862
lradius 73.8209
lwrist -26.0798
lhand -45.3861 -0.00455103
lfingers 7.12502
lthumb -18.1552 29.1682
rfemur -0.97496 11.087 12.7186
rtibia 41.0241
rfoot -12.4909 8.55549
rtoes -35.3051
lfemur -181.012 1.09387 -46.1874
ltibia 130.826
lfoot -6.76713 -10.8632
ltoes 18.214
3867
root 5.41123 6.65909 17.0059 61.2464 -12.8281 -6.59362
lowerback 27.3447 0.694265 7.91278
upperback 10.0312 2.0895 -7.53073
thorax -3.18176 1.28868 -12.9786
lowerneck 23.8212 -9.5566 -36.5545
upperneck -8.94877 -20.0964 44.6403
head 3.62608 -13.517 26.1146
rclavicle 3.02153e-014 -1.08785e-013
rhumerus 59.1119 4.40364 -78.8485
rradius 90.3087
rwrist 18.3099
rhand -10.2685 -6.9308
rfingers 7.12502
rthumb 15.7251 323.688
lclavicle 3.02153e-014 -1.08785e-013
lhumerus 61.051 -20.6394 68.3006
lradius 73.0896
lwrist -24.7469
lhand -46.001 -0.623217
lfingers 7.12502
lthumb -18.7466 28.4934
rfemur -1.07825 11.2421 12.4233
rtibia 41.4104
rfoot -12.6134 8.79411
rtoes -35.279
lfemur -180.794 1.21469 -46.3538
ltibia 130.723
lfoot -6.79645 -10.815
ltoes 17.9081
3868
root 5.42579 6.67267 16.9884 61.0793 -13.0984 -6.59102
lowerback 27.3506 0.915294 7.60713
upperback 9.86647 2.29539 -7.45968
thorax -3.32085 1.36461 -12.7847
lowerneck 23.9366 -9.51367 -36.4568
upperneck -9.73127 -19.9278 44.8376
head 3.33377 -13.4643 26.3347
rclavicle -6.52014e-014 1.54307e-014
rhumerus 58.5081 4.2493 -78.886
rradius 89.9442
rwrist 18.0145
rhand -10.1936 -7.02258
rfingers 7.12502
rthumb 15.7972 323.602
lclavicle -6.52014e-014 1.54307e-014
lhumerus 61.1792 -20.8366 67.3276
lradius 72.407
lwrist -23.3799
lhand -46.5902 -1.31599
lfingers 7.12502
lthumb -19.3133 27.745
rfemur -1.16953 11.3885 12.0937
rtibia 41.787
rfoot -12.7153 9.07539
rtoes -35.1867
lfemur -180.548 1.32522 -46.5296
ltibia 130.62
lfoot -6.8359 -10.7452
ltoes 17.5826
3869
root 5.43939 6.68611 16.9709 60.911 -13.3591 -6.55889
lowerback 27.3386 1.12555 7.29068
upperback 9.70685 2.48416 -7.39616
thorax -3.45366 1.43366 -12.5885
lowerneck 24.0732 -9.46579 -36.3256
upperneck -10.4687 -19.7499 45.0221
head 3.03729 -13.4075 26.5544
rclavicle 6.75868e-015 6.7885e-014
rhumerus 57.8248 4.07451 -78.9783
rradius 89.6157
rwrist 17.8111
rhand -10.0436 -7.06477
rfingers 7.12502
rthumb 15.9416 323.571
lclavicle 6.75868e-015 6.7885e-014
lhumerus 61.3277 -21.0381 66.2776
lradius 71.7624
lwrist -21.9894
lhand -47.1419 -2.1285
lfingers 7.12502
lthumb -19.8437 26.8785
rfemur -1.25805 11.5226 11.7623
rtibia 42.1478
rfoot -12.815 9.38484
rtoes -35.0823
lfemur -180.288 1.41809 -46.692
ltibia 130.512
lfoot -6.87934 -10.6588
ltoes 17.2531
3870
root 5.45223 6.69946 16.9535 60.7441 -13.6081 -6.4974
lowerback 27.2756 1.31957 6.97055
upperback 9.57106 2.62404 -6.97838
thorax -3.54381 1.46172 -12.7575
lowerneck 24.1594 -9.44046 -36.1779
upperneck -11.0896 -19.5995 45.1744
head 2.78697 -13.3571 26.7255
rclavicle 1.23246e-014 2.2736e-014
rhumerus 57.0569 3.88662 -79.1456
rradius 89.3309
rwrist 17.7681
rhand -9.86448 -7.00958
rfingers 7.12502
rthumb 16.1141 323.64
lclavicle 1.23246e-014 2.2736e-014
lhumerus 61.5435 -21.2256 65.0754
lradius 71.0863
lwrist -20.5098
lhand -47.703 -3.08251
lfingers 7.12502
lthumb -20.383 25.8678
rfemur -1.34779 11.6375 11.43
rtibia 42.4908
rfoot -12.9207 9.693
rtoes -34.9942
lfemur -180.014 1.48801 -46.8397
ltibia 130.398
lfoot -6.9278 -10.5519
ltoes 16.918
3871
root 5.4644 6.71264 16.9363 60.5901 -13.8332 -6.41559
lowerback 27.2056 1.48796 6.66139
upperback 9.42679 2.76087 -6.94769
thorax -3.66404 1.5086 -12.57
lowerneck 24.2051 -9.4325 -36.018
upperneck -11.6007 -19.4735 45.3054
head 2.58055 -13.3143 26.8604
rclavicle -7.27552e-014 3.23025e-014
rhumerus 56.2042 3.68503 -79.397
rradius 89.0926
rwrist 17.9103
rhand -9.69936 -6.86796
rfingers 7.12502
rthumb 16.2731 323.795
lclavicle -7.27552e-014 3.23025e-014
lhumerus 61.7989 -21.4021 63.7841
lradius 70.4194
lwrist -18.9682
lhand -48.2141 -4.20867
lfingers 7.12502
lthumb -20.8741 24.6883
rfemur -1.44542 11.7302 11.1111
rtibia 42.8083
rfoot -13.0401 9.97696
rtoes -34.9542
lfemur -179.736 1.52923 -46.9642
ltibia 130.274
lfoot -6.97721 -10.4263
ltoes 16.5597
3872
root 5.47586 6.72573 16.9193 60.4473 -14.0378 -6.31979
lowerback 27.1107 1.63256 6.36486
upperback 9.28243 2.86991 -6.93255
thorax -3.77834 1.54377 -12.3999
lowerneck 24.204 -9.45242 -35.8328
upperneck -12.0218 -19.377 45.4075
head 2.41226 -13.2798 26.9359
rclavicle 1.03368e-014 7.87684e-015
rhumerus 55.2666 3.47261 -79.7402
rradius 88.9071
rwrist 18.2186
rhand -9.58259 -6.63877
rfingers 7.12502
rthumb 16.3856 324.033
lclavicle 1.03368e-014 7.87684e-015
lhumerus 62.083 -21.5662 62.4304
lradius 69.7681
lwrist -17.38
lhand -48.6681 -5.50055
lfingers 7.12502
lthumb -21.3102 23.3478
rfemur -1.54638 11.8055 10.8069
rtibia 43.0963
rfoot -13.1806 10.226
rtoes -34.9661
lfemur -179.459 1.54791 -47.0724
ltibia 130.141
lfoot -7.03213 -10.2836
ltoes 16.1324
3873
root 5.48709 6.73848 16.9028 60.3266 -14.1961 -6.22177
lowerback 26.9776 1.74762 6.11511
upperback 9.13527 2.95291 -6.92628
thorax -3.8802 1.56868 -12.2591
lowerneck 24.1591 -9.51003 -35.6197
upperneck -12.3576 -19.3235 45.4774
head 2.2859 -13.2606 26.9374
rclavicle 1.59028e-014 -1.50952e-015
rhumerus 54.243 3.248 -80.163
rradius 88.7711
rwrist 18.6296
rhand -9.5555 -6.33653
rfingers 7.12502
rthumb 16.4117 324.338
lclavicle 1.59028e-014 -1.50952e-015
lhumerus 62.3737 -21.724 61.0676
lradius 69.1396
lwrist -15.8061
lhand -49.064 -6.91948
lfingers 7.12502
lthumb -21.6905 21.8854
rfemur -1.65658 11.8564 10.5437
rtibia 43.3563
rfoot -13.3403 10.4444
rtoes -35.0114
lfemur -179.195 1.53338 -47.1397
ltibia 129.998
lfoot -7.0375 -10.1907
ltoes 15.9355
3874
root 5.49799 6.75097 16.8868 60.2261 -14.3129 -6.13351
lowerback 26.8166 1.83941 5.90601
upperback 8.98185 3.01665 -6.92531
thorax -3.97706 1.58561 -12.1425
lowerneck 24.1185 -9.57683 -35.371
upperneck -12.6733 -19.2727 45.5277
head 2.15526 -13.2411 26.9057
rclavicle 3.02153e-014 2.51432e-015
rhumerus 53.1295 3.01567 -80.6484
rradius 88.6655
rwrist 19.0774
rhand -9.66213 -5.95767
rfingers 7.12502
rthumb 16.309 324.708
lclavicle 3.02153e-014 2.51432e-015
lhumerus 62.6448 -21.8838 59.7544
lradius 68.533
lwrist -14.3067
lhand -49.3925 -8.41327
lfingers 7.12502
lthumb -22.0059 20.3549
rfemur -1.77595 11.8944 10.3251
rtibia 43.5944
rfoot -13.5078 10.621
rtoes -35.0858
lfemur -178.952 1.49768 -47.1776
ltibia 129.849
lfoot -7.00078 -10.1463
ltoes 15.9281
3875
root 5.50828 6.76162 16.8693 60.1454 -14.3855 -6.07318
lowerback 26.6353 1.9118 5.74284
upperback 8.81855 3.06767 -6.92443
thorax -4.07468 1.59701 -12.0495
lowerneck 24.0941 -9.6406 -35.0995
upperneck -12.9669 -19.2161 45.5616
head 2.01673 -13.2182 26.8574
rclavicle -2.8625e-014 1.8108e-014
rhumerus 51.9199 2.78645 -81.1802
rradius 88.5817
rwrist 19.4887
rhand -9.93553 -5.50123
rfingers 7.12502
rthumb 16.0457 325.143
lclavicle -2.8625e-014 1.8108e-014
lhumerus 62.8715 -22.0521 58.5382
lradius 67.937
lwrist -12.9325
lhand -49.6626 -9.91883
lfingers 7.12502
lthumb -22.2652 18.8186
rfemur -1.8983 11.9667 10.1791
rtibia 43.8194
rfoot -13.6993 10.7453
rtoes -35.1978
lfemur -178.762 1.45548 -47.172
ltibia 129.694
lfoot -6.88671 -10.1579
ltoes 16.1422
3876
root 5.51806 6.77113 16.851 60.0909 -14.4123 -6.05233
lowerback 26.4316 1.96743 5.63002
upperback 8.64395 3.11046 -6.9193
thorax -4.17236 1.60484 -11.9786
lowerneck 24.0709 -9.69259 -34.8311
upperneck -13.22 -19.1507 45.5914
head 1.88415 -13.1909 26.8144
rclavicle 4.77083e-014 -9.0447e-014
rhumerus 50.6202 2.5762 -81.7318
rradius 88.5126
rwrist 19.8055
rhand -10.4027 -4.99954
rfingers 7.12502
rthumb 15.5959 325.609
lclavicle 4.77083e-014 -9.0447e-014
lhumerus 63.0536 -22.23 57.43
lradius 67.3264
lwrist -11.6909
lhand -49.8929 -11.3808
lfingers 7.12502
lthumb -22.4863 17.33
rfemur -2.0366 12.0715 10.109
rtibia 44.0377
rfoot -13.8849 10.8146
rtoes -35.3116
lfemur -178.628 1.41379 -47.1312
ltibia 129.532
lfoot -6.70914 -10.2185
ltoes 16.5153
3877
root 5.52794 6.78149 16.8338 60.0797 -14.3986 -6.07014
lowerback 26.1959 2.00164 5.56972
upperback 8.45331 3.13902 -6.91532
thorax -4.27135 1.60597 -11.9354
lowerneck 24.0552 -9.74449 -34.5426
upperneck -13.4574 -19.0817 45.595
head 1.74301 -13.1586 26.7414
rclavicle 3.57812e-014 -4.72114e-015
rhumerus 49.234 2.41061 -82.292
rradius 88.4623
rwrist 20.0082
rhand -11.0848 -4.50106
rfingers 7.12502
rthumb 14.9388 326.058
lclavicle 3.57812e-014 -4.72114e-015
lhumerus 63.1378 -22.4162 56.5349
lradius 66.7319
lwrist -10.6842
lhand -50.0452 -12.7211
lfingers 7.12502
lthumb -22.6325 15.972
rfemur -2.2176 12.1669 10.0861
rtibia 44.2448
rfoot -14.0465 10.8805
rtoes -35.4156
lfemur -178.532 1.36445 -47.0759
ltibia 129.358
lfoot -6.51983 -10.3068
ltoes 16.9161
3878
root 5.53853 6.79345 16.8181 60.131 -14.345 -6.12844
lowerback 25.9008 2.01407 5.56261
upperback 8.24928 3.1527 -6.91031
thorax -4.35545 1.601 -11.9149
lowerneck 24.0008 -9.7999 -34.2558
upperneck -13.6306 -19.0185 45.5703
head 1.62367 -13.122 26.6294
rclavicle -4.45278e-014 -3.43649e-014
rhumerus 47.775 2.31247 -82.8445
rradius 88.4327
rwrist 20.1188
rhand -11.9842 -4.03682
rfingers 7.12502
rthumb 14.0723 326.46
lclavicle -4.45278e-014 -3.43649e-014
lhumerus 63.1589 -22.5858 55.797
lradius 66.1237
lwrist -9.86309
lhand -50.1486 -13.8983
lfingers 7.12502
lthumb -22.7318 14.7826
rfemur -2.46832 12.2399 10.0978
rtibia 44.4445
rfoot -14.174 10.9602
rtoes -35.4959
lfemur -178.476 1.29646 -47.0065
ltibia 129.165
lfoot -6.37413 -10.3573
ltoes 17.0343
3879
root 5.549 6.80681 16.8045 60.1841 -14.2793 -6.23192
lowerback 25.6204 2.0108 5.58257
upperback 8.04298 3.1527 -6.9081
thorax -4.44935 1.58889 -11.912
lowerneck 23.9029 -9.85796 -33.9701
upperneck -13.7413 -18.959 45.5139
head 1.52469 -13.0787 26.4749
rclavicle 1.15295e-014 -2.89232e-014
rhumerus 46.2428 2.29442 -83.3893
rradius 88.4309
rwrist 20.2036
rhand -13.0905 -3.6302
rfingers 7.12502
rthumb 13.0059 326.795
lclavicle 1.15295e-014 -2.89232e-014
lhumerus 63.0801 -22.7362 55.2949
lradius 65.5337
lwrist -9.32887
lhand -50.1714 -14.8422
lfingers 7.12502
lthumb -22.7536 13.8361
rfemur -2.71894 12.3014 10.133
rtibia 44.6334
rfoot -14.2722 11.0741
rtoes -35.5505
lfemur -178.428 1.26493 -46.9537
ltibia 128.979
lfoot -6.28611 -10.3893
ltoes 16.8819
